<svg width="421" height="579" viewBox="0 0 421 579" fill="none" xmlns="http://www.w3.org/2000/svg">
<g filter="url(#filter0_d_6_67)">
<path d="M174.187 345.982C178.859 355.955 175.013 366.657 172.507 370.762L125.505 353.688C129.381 343.059 137.209 336.624 140.639 334.736L174.187 345.982Z" fill="#FE9191"/>
<ellipse cx="25.2067" cy="3.97747" rx="25.2067" ry="3.97747" transform="matrix(-0.939906 -0.341434 -0.342607 0.939479 174.021 366.61)" fill="#FFBBBB"/>
<ellipse cx="23.987" cy="3.09358" rx="23.987" ry="3.09358" transform="matrix(-0.939906 -0.341434 -0.342607 0.939479 172.189 366.885)" fill="#A95D63"/>
<path d="M117.008 232.92C103.574 280.137 122.025 329.796 155.746 343.853C187.934 354.509 234.68 328.362 256.867 283.726C275.841 235.463 258.171 185.992 218.128 172.793C178.704 156.825 133.281 183.378 117.008 232.92Z" fill="#FEAAB1"/>
<path d="M145.184 212.049C173.221 167.99 188.844 181.845 190.125 182.31C195.097 186.182 194.858 192.209 193.065 194.141C174.431 205.453 159.14 241.083 155.075 256.54C151.174 261.667 145.999 258.552 143.899 256.354C131.733 244.358 139.687 221.819 145.184 212.049Z" fill="#FFCECE"/>
<path d="M97.9578 331.272C104.7 334.565 106.604 341.507 106.713 344.566L71.7014 353.93C69.8446 347.014 72.019 340.718 73.3383 338.435L97.9578 331.272Z" fill="#5ECECE"/>
<ellipse cx="18.2685" cy="2.5175" rx="18.2685" ry="2.5175" transform="matrix(-0.966051 0.25835 0.259288 0.9658 105.988 341.865)" fill="#D4FFEC"/>
<ellipse cx="17.3846" cy="1.95805" rx="17.3846" ry="1.95805" transform="matrix(-0.966051 0.25835 0.259288 0.9658 104.995 342.71)" fill="#3D7796"/>
<path d="M18.9905 295.557C29.5162 324.823 60.1907 343.073 86.0225 337.278C109.59 330.337 127.414 299.011 123.173 267.695C115.568 235.763 85.4381 217.31 56.1407 225.974C26.1241 232.987 9.2571 264.011 18.9905 295.557Z" fill="#9CE8E8"/>
<path d="M27.7194 274.066C27.2255 240.795 42.0866 241.857 43.041 241.602C47.5589 241.667 49.7901 244.834 49.4728 246.51C42.7185 259.451 47.5603 283.518 51.2061 292.971C50.8794 297.088 46.5377 297.489 44.4077 297.175C32.3594 295.731 28.262 281.168 27.7194 274.066Z" fill="#CAFFFF"/>
<path d="M344.231 474.861C357.342 475.895 366.058 486.161 368.777 491.165L322.756 529.707C314.135 519.452 312.228 507.578 312.353 502.923L344.231 474.861Z" fill="#FFC5C5"/>
<ellipse cx="30.2582" cy="4.70998" rx="30.2582" ry="4.70998" transform="matrix(-0.766659 0.642055 0.64352 0.765429 365.41 487.159)" fill="#FCE0E0"/>
<ellipse cx="28.7941" cy="3.66331" rx="28.7941" ry="3.66331" transform="matrix(-0.766659 0.642055 0.64352 0.765429 364.587 489.214)" fill="#E2A7A7"/>
<path d="M193.043 467.493C233.629 509.134 296.007 519.258 330.889 492.668C361.336 465.666 362.618 401.98 329.984 352.808C291.667 304.825 229.956 294.005 192.138 327.632C151.838 358.993 151.774 421.549 193.043 467.493Z" fill="#FFD3D3"/>
<path d="M79.8287 393.718C49.6644 397.913 62.3562 425.159 63.2298 424.734C64.1034 424.309 70.2189 421.76 70.2189 421.76C61.777 406.407 78.1173 401.789 87.6915 400.092C126.784 390.392 112.155 374.027 106.038 366.526L97.4081 369.93C108.181 378.943 110.661 389.431 79.8287 393.718Z" fill="#D4C2FF"/>
<path d="M257.595 555.298C256.528 556.566 254.588 556.746 253.668 555.369C252.695 553.912 252.092 552.222 251.936 550.447C251.692 547.665 252.566 544.901 254.364 542.762C256.162 540.623 258.738 539.285 261.525 539.041C263.304 538.886 265.076 539.185 266.683 539.889C268.201 540.554 268.36 542.492 267.294 543.761L262.444 549.529L257.595 555.298Z" fill="#CCE5B2"/>
<path d="M338.429 245.029C347.844 248.669 351.218 257.766 351.728 261.859L305.975 278.48C302.668 269.412 304.831 260.71 306.326 257.493L338.429 245.029Z" fill="#9FDBBB"/>
<ellipse cx="24.5369" cy="3.39336" rx="24.5369" ry="3.39336" transform="matrix(-0.939906 0.341434 0.342607 0.939479 350.436 258.317)" fill="#70DBA2"/>
<ellipse cx="23.3496" cy="2.63927" rx="23.3496" ry="2.63927" transform="matrix(-0.939906 0.341434 0.342607 0.939479 349.207 259.566)" fill="#4EAF7B"/>
<path d="M228.485 206.23C246.051 244.295 289.278 265.24 323.166 254.471C353.888 242.427 374.025 198.317 364.627 156.774C350.655 114.794 308.132 93.5117 269.946 108.533C230.6 121.421 211.709 165.014 228.485 206.23Z" fill="#AFF7D0"/>
<path d="M237.616 176.374C233.002 131.772 253.021 131.479 254.268 131.026C260.323 130.589 263.686 134.583 263.46 136.869C255.957 155.02 265.297 186.764 271.3 199.03C271.352 204.594 265.588 205.635 262.699 205.46C246.401 204.916 239.186 185.843 237.616 176.374Z" fill="#D4FFEC"/>
<path d="M261.851 12.0044C261.851 9.40238 258.761 8.03811 256.832 9.78871L244.733 20.7698C243.126 22.2284 243.55 24.8548 245.535 25.7308L257.632 31.0715C259.617 31.9475 261.849 30.4942 261.849 28.3261L261.851 12.0044Z" fill="#FCC773"/>
<path d="M294.411 99.7787C264.247 103.973 276.939 131.22 277.813 130.795C278.686 130.37 284.802 127.821 284.802 127.821C276.36 112.468 292.7 107.85 302.274 106.152C341.367 96.4523 326.738 80.0877 320.62 72.5866L311.991 75.9905C322.764 85.0038 325.244 95.4913 294.411 99.7787Z" fill="#D4C2FF"/>
<path d="M266.288 84.8394C267.272 83.5066 269.197 83.2045 270.202 84.5209C271.265 85.9138 271.974 87.5625 272.241 89.325C272.66 92.0857 271.962 94.8993 270.303 97.1469C268.643 99.3946 266.156 100.892 263.39 101.31C261.624 101.577 259.837 101.39 258.189 100.788C256.632 100.22 256.351 98.2949 257.335 96.9621L261.811 90.9008L266.288 84.8394Z" fill="#EF8089"/>
<path d="M174.187 345.982C178.859 355.955 175.013 366.657 172.507 370.762L125.505 353.688C129.381 343.059 137.209 336.624 140.639 334.736L174.187 345.982Z" fill="#9FDBBB"/>
<ellipse cx="25.2067" cy="3.97747" rx="25.2067" ry="3.97747" transform="matrix(-0.939906 -0.341434 -0.342607 0.939479 174.021 366.61)" fill="#70DBA2"/>
<ellipse cx="23.987" cy="3.09358" rx="23.987" ry="3.09358" transform="matrix(-0.939906 -0.341434 -0.342607 0.939479 172.189 366.885)" fill="#4EAF7B"/>
<path d="M117.008 232.92C103.574 280.137 122.025 329.796 155.746 343.853C187.934 354.509 234.68 328.362 256.867 283.726C275.841 235.463 258.171 185.992 218.128 172.793C178.704 156.825 133.281 183.378 117.008 232.92Z" fill="#FEAAB1"/>
<path d="M145.184 212.049C173.221 167.99 188.844 181.845 190.125 182.31C195.097 186.182 194.858 192.209 193.065 194.141C174.431 205.453 159.14 241.083 155.075 256.54C151.174 261.667 145.999 258.552 143.899 256.354C131.733 244.358 139.687 221.819 145.184 212.049Z" fill="#FFCECE"/>
<path d="M97.9578 330.952C104.7 334.246 106.604 341.187 106.713 344.247L71.7014 353.61C69.8446 346.694 72.019 340.399 73.3383 338.115L97.9578 330.952Z" fill="#9FDBBB"/>
<ellipse cx="18.2685" cy="2.5175" rx="18.2685" ry="2.5175" transform="matrix(-0.966051 0.25835 0.259288 0.9658 105.988 341.545)" fill="#70DBA2"/>
<ellipse cx="17.3846" cy="1.95805" rx="17.3846" ry="1.95805" transform="matrix(-0.966051 0.25835 0.259288 0.9658 104.995 342.39)" fill="#4EAF7B"/>
<path d="M18.9905 295.237C29.5162 324.504 60.1907 342.754 86.0225 336.958C109.59 330.017 127.414 298.692 123.173 267.376C115.568 235.444 85.4381 216.99 56.1407 225.654C26.1241 232.668 9.2571 263.691 18.9905 295.237Z" fill="#9CE8E8"/>
<path d="M27.7194 273.747C27.2255 240.475 42.0866 241.538 43.041 241.283C47.5589 241.347 49.7901 244.515 49.4728 246.19C42.7185 259.131 47.5603 283.198 51.2061 292.651C50.8794 296.768 46.5377 297.169 44.4077 296.855C32.3594 295.411 28.262 280.848 27.7194 273.747Z" fill="#CAFFFF"/>
</g>
<defs>
<filter id="filter0_d_6_67" x="0" y="0" width="421" height="579" filterUnits="userSpaceOnUse" color-interpolation-filters="sRGB">
<feFlood flood-opacity="0" result="BackgroundImageFix"/>
<feColorMatrix in="SourceAlpha" type="matrix" values="0 0 0 0 0 0 0 0 0 0 0 0 0 0 0 0 0 0 127 0" result="hardAlpha"/>
<feOffset dy="4"/>
<feGaussianBlur stdDeviation="2"/>
<feComposite in2="hardAlpha" operator="out"/>
<feColorMatrix type="matrix" values="0 0 0 0 0 0 0 0 0 0 0 0 0 0 0 0 0 0 0.25 0"/>
<feBlend mode="normal" in2="BackgroundImageFix" result="effect1_dropShadow_6_67"/>
<feBlend mode="normal" in="SourceGraphic" in2="effect1_dropShadow_6_67" result="shape"/>
</filter>
</defs>
</svg>
