<svg width="412" height="349" viewBox="0 0 412 349" fill="none" xmlns="http://www.w3.org/2000/svg">
<path d="M282.86 177.572C284.194 176.589 284.495 174.681 283.261 173.575C281.151 171.684 278.52 170.43 275.676 169.999C271.834 169.418 267.919 170.386 264.792 172.691C261.665 174.996 259.581 178.449 258.999 182.291C258.569 185.135 258.988 188.019 260.17 190.595C260.861 192.1 262.772 192.377 264.106 191.394L273.483 184.483L282.86 177.572Z" fill="#EF8089"/>
<path d="M191.009 247.477C192.837 246.118 195.452 247.211 195.77 249.465L200.15 280.495C200.475 282.798 198.17 284.579 196.024 283.683L166.5 271.356C164.354 270.46 163.999 267.568 165.865 266.18L191.009 247.477Z" fill="#93D4D4"/>
<path d="M187.568 333.294C189.322 338.112 186.838 343.439 182.02 345.193C177.202 346.946 171.875 344.462 170.121 339.644L157.175 304.073C155.421 299.256 157.905 293.928 162.723 292.175C167.541 290.421 172.868 292.905 174.621 297.723L187.568 333.294Z" fill="#CCE5B2"/>
<path d="M340.838 158.402C338.966 166.723 343.515 174.682 346.024 177.622L378.098 159.104C373.538 151.205 366.72 147.024 363.881 145.921L340.838 158.402Z" fill="#ABE5C6"/>
<ellipse cx="362.013" cy="167.979" rx="18.6685" ry="3.20626" transform="rotate(-30 362.013 167.979)" fill="#70DBA2"/>
<ellipse cx="362.274" cy="167.828" rx="17.7652" ry="2.49376" transform="rotate(-30 362.274 167.828)" fill="#4EAF7B"/>
<path d="M365.174 63.6083C382.629 99.1086 376.872 140.014 354.148 154.715C332.019 166.585 293.258 151.231 269.734 118.71C248.012 82.9975 253.221 42.3252 280.76 27.6037C307.402 10.7818 345.247 26.5983 365.174 63.6083Z" fill="#C2F2D8"/>
<path d="M340.998 50.352C313.236 18.9238 303.876 31.4836 303.002 31.9884C299.938 35.5652 301.074 40.2578 302.708 41.5741C318.3 48.3907 335.287 74.6154 340.755 86.2731C344.457 89.8601 347.793 86.8547 348.998 84.9036C356.094 74.1778 346.621 57.4001 340.998 50.352Z" fill="#D4FFEC"/>
<path d="M71.8921 218.459C58.8992 219.607 50.1742 229.906 47.4359 234.911L92.6581 272.857C101.289 262.571 103.285 250.735 103.204 246.102L71.8921 218.459Z" fill="#EBA029"/>
<ellipse cx="70.5673" cy="253.636" rx="29.7567" ry="4.72058" transform="rotate(40 70.5673 253.636)" fill="#FDDCAA"/>
<ellipse cx="70.9355" cy="253.945" rx="28.3169" ry="3.67156" transform="rotate(40 70.9355 253.945)" fill="#834F10"/>
<path d="M221.676 209.749C181.105 251.569 119.242 262.213 84.9414 236.063C55.0372 209.461 54.3478 146.079 87.1118 96.8365C125.494 48.7251 186.703 37.3938 223.846 70.5226C263.469 101.372 262.961 163.641 221.676 209.749Z" fill="#F5B651"/>
<path d="M226.509 168.506C255.234 113.62 231.804 105.871 230.571 104.837C223.666 102.052 217.618 105.879 216.691 108.862C216.052 134.656 188.473 171.488 174.996 184.837C172.029 191.877 178.276 195.322 181.771 196.164C201.256 201.481 219.715 179.941 226.509 168.506Z" fill="#FDDCAA"/>
</svg>
